<svg width="15" height="6" viewBox="0 0 15 6" fill="none" xmlns="http://www.w3.org/2000/svg">
 <path d="M2.4375 5.0625C1.2975 5.0625 0.375 4.14 0.375 3C0.375 1.86 1.2975 0.9375 2.4375 0.9375C3.5775 0.9375 4.5 1.86 4.5 3C4.5 4.14 3.5775 5.0625 2.4375 5.0625ZM2.4375 2.0625C1.92 2.0625 1.5 2.4825 1.5 3C1.5 3.5175 1.92 3.9375 2.4375 3.9375C2.955 3.9375 3.375 3.5175 3.375 3C3.375 2.4825 2.955 2.0625 2.4375 2.0625Z" fill="white"/>
 <path d="M12.9375 5.0625C11.7975 5.0625 10.875 4.14 10.875 3C10.875 1.86 11.7975 0.9375 12.9375 0.9375C14.0775 0.9375 15 1.86 15 3C15 4.14 14.0775 5.0625 12.9375 5.0625ZM12.9375 2.0625C12.42 2.0625 12 2.4825 12 3C12 3.5175 12.42 3.9375 12.9375 3.9375C13.455 3.9375 13.875 3.5175 13.875 3C13.875 2.4825 13.455 2.0625 12.9375 2.0625Z" fill="white"/>
 <path d="M7.6875 5.0625C6.5475 5.0625 5.625 4.14 5.625 3C5.625 1.86 6.5475 0.9375 7.6875 0.9375C8.8275 0.9375 9.75 1.86 9.75 3C9.75 4.14 8.8275 5.0625 7.6875 5.0625ZM7.6875 2.0625C7.17 2.0625 6.75 2.4825 6.75 3C6.75 3.5175 7.17 3.9375 7.6875 3.9375C8.205 3.9375 8.625 3.5175 8.625 3C8.625 2.4825 8.205 2.0625 7.6875 2.0625Z" fill="white"/>
 </svg>
