<svg
width="18"
height="18"
viewBox="0 0 18 18"
fill="none"
xmlns="http://www.w3.org/2000/svg"
class="w-[18px] h-[18px] relative"
preserveAspectRatio="xMidYMid meet"
>
<path
  fill-rule="evenodd"
  clip-rule="evenodd"
  d="M11.25 3.75C11.25 2.09315 12.5931 0.75 14.25 0.75C15.9069 0.75 17.25 2.09315 17.25 3.75C17.25 5.40685 15.9069 6.75 14.25 6.75C13.226 6.75 12.3217 6.23691 11.7804 5.45378L6.57602 7.99079C6.68866 8.30617 6.75 8.64592 6.75 9C6.75 9.32963 6.69684 9.64684 6.59862 9.94352L11.7732 12.5567C12.3137 11.7677 13.2214 11.25 14.25 11.25C15.9069 11.25 17.25 12.5931 17.25 14.25C17.25 15.9069 15.9069 17.25 14.25 17.25C12.5931 17.25 11.25 15.9069 11.25 14.25C11.25 14.1587 11.2541 14.0683 11.2621 13.979L5.77885 11.21C5.24477 11.7005 4.53236 12 3.75 12C2.09315 12 0.75 10.6569 0.75 9C0.75 7.34315 2.09315 6 3.75 6C4.50465 6 5.19421 6.27864 5.72143 6.73865L11.2636 4.03701C11.2546 3.94255 11.25 3.84681 11.25 3.75ZM15.75 3.75C15.75 2.92157 15.0784 2.25 14.25 2.25C13.4216 2.25 12.75 2.92157 12.75 3.75C12.75 4.57843 13.4216 5.25 14.25 5.25C15.0784 5.25 15.75 4.57843 15.75 3.75ZM15.75 14.25C15.75 13.4216 15.0784 12.75 14.25 12.75C13.4216 12.75 12.75 13.4216 12.75 14.25C12.75 15.0784 13.4216 15.75 14.25 15.75C15.0784 15.75 15.75 15.0784 15.75 14.25ZM3.75 7.5C4.57843 7.5 5.25 8.17157 5.25 9C5.25 9.82843 4.57843 10.5 3.75 10.5C2.92157 10.5 2.25 9.82843 2.25 9C2.25 8.17157 2.92157 7.5 3.75 7.5Z"
  fill="#232323"
/>
</svg>
