<svg
width="18"
height="18"
viewBox="0 0 18 18"
fill="none"
xmlns="http://www.w3.org/2000/svg"
class="relative h-[18px] w-[18px] flex-shrink-0 flex-grow-0"
preserveAspectRatio="xMidYMid meet"
>
<path
  d="M14.925 7.875L3.075 7.875C1.95 7.875 1.5 7.395 1.5 6.2025L1.5 3.1725C1.5 1.98 1.95 1.5 3.075 1.5L14.925 1.5C16.05 1.5 16.5 1.98 16.5 3.1725V6.2025C16.5 7.395 16.05 7.875 14.925 7.875Z"
  stroke="#232323"
  stroke-width="1.5"
  stroke-linecap="round"
  stroke-linejoin="round"
/>
<path
  d="M6.39 16.5H2.985C1.9275 16.5 1.5 16.02 1.5 14.8275L1.5 11.7975C1.5 10.605 1.9275 10.125 2.985 10.125H6.3825C7.4475 10.125 7.8675 10.605 7.8675 11.7975L7.8675 14.8275C7.875 16.02 7.4475 16.5 6.39 16.5Z"
  stroke="#232323"
  stroke-width="1.5"
  stroke-linecap="round"
  stroke-linejoin="round"
/>
<path
  d="M14.8275 16.5H11.7975C10.605 16.5 10.125 16.02 10.125 14.8275V11.7975C10.125 10.605 10.605 10.125 11.7975 10.125H14.8275C16.02 10.125 16.5 10.605 16.5 11.7975V14.8275C16.5 16.02 16.02 16.5 14.8275 16.5Z"
  stroke="#232323"
  stroke-width="1.5"
  stroke-linecap="round"
  stroke-linejoin="round"
/>
</svg>
